<?xml version="1.0" encoding="UTF-8" standalone="no"?>
<svg
   xmlns:dc="http://purl.org/dc/elements/1.1/"
   xmlns:cc="http://creativecommons.org/ns#"
   xmlns:rdf="http://www.w3.org/1999/02/22-rdf-syntax-ns#"
   xmlns:svg="http://www.w3.org/2000/svg"
   xmlns="http://www.w3.org/2000/svg"
   xmlns:sodipodi="http://sodipodi.sourceforge.net/DTD/sodipodi-0.dtd"
   xmlns:inkscape="http://www.inkscape.org/namespaces/inkscape"
   id="Ebene_1"
   data-name="Ebene 1"
   viewBox="0 0 1620 809.99998"
   version="1.1"
   sodipodi:docname="ptas.svg"
   width="1620"
   height="810"
   inkscape:version="1.0.2 (e86c870879, 2021-01-15, custom)">
  <metadata
     id="metadata50">
    <rdf:RDF>
      <cc:Work
         rdf:about="">
        <dc:format>image/svg+xml</dc:format>
        <dc:type
           rdf:resource="http://purl.org/dc/dcmitype/StillImage" />
        <dc:title />
      </cc:Work>
    </rdf:RDF>
  </metadata>
  <defs
     id="defs48" />
  <sodipodi:namedview
     pagecolor="#ffffff"
     bordercolor="#666666"
     borderopacity="1"
     objecttolerance="10"
     gridtolerance="10000"
     guidetolerance="10"
     inkscape:pageopacity="0"
     inkscape:pageshadow="2"
     inkscape:window-width="1774"
     inkscape:window-height="1010"
     id="namedview46"
     showgrid="true"
     inkscape:snap-global="true"
     inkscape:object-nodes="true"
     inkscape:snap-grids="true"
     inkscape:snap-to-guides="true"
     inkscape:zoom="0.68358679"
     inkscape:cx="771.665"
     inkscape:cy="391.54"
     inkscape:window-x="173"
     inkscape:window-y="55"
     inkscape:window-maximized="0"
     inkscape:current-layer="Ebene_1"
     inkscape:document-rotation="0">
    <inkscape:grid
       type="xygrid"
       id="grid52"
       spacingx="32"
       spacingy="32" />
  </sodipodi:namedview>
  <style
     id="style31">
    .logo__letter-punch {fill:none;}
    .logo__letter-a{fill:#7d0000;}
    .logo__letter-pts{fill:#000;}

    @media (prefers-color-scheme: dark) {
      .logo__letter-a{fill:#d00;}
      .logo__letter-pts{fill:#ccc;}
    }
  </style>
  <!-- P (punch) -->
  <path
     class="logo__letter-punch"
     d="m 427.61,515.89 c 0,-41.37 -20.69,-62.06 -61.44,-62.06 h -89 v 123.49 h 84.63 c 43.87,0.68 65.81,-20.05 65.81,-61.43 z"
     transform="translate(-188.78,-148.79)"
     id="path33" />
  <!-- A (punch) -->
  <polygon
     class="logo__letter-punch"
     points="1052.34,142.56 889.8,443.28 1043.25,443.28 "
     id="polygon35" />
  <!-- P -->
  <path
     class="logo__letter-pts"
     d="m 94.75,442.82135 h 107.82 c 85.25,0 131,-58.13056 131,-149.74972 0,-97.08425 -47,-149.74973 -137.28,-149.74973 H 51.5 c -24.45,0 -43.88,23.24568 -43.88,49.91657 V 608.29 H 94.75 Z M 96,224 h 89 c 40.75,0 61.44,22.56936 61.44,67.69717 0,45.12782 -21.93,67.75172 -65.81,67.00995 H 96 Z"
     id="path37"
     style="stroke-width:1.04443" />
  <!-- T -->
  <path
     class="logo__letter-pts"
     d="m 480,607.71528 h 87.13 V 224 h 126 V 140.93834 H 397.88 c -24.44,0 -43.88,23.33611 -43.88,50.11076 V 224 h 126 z"
     id="path39"
     style="stroke-width:1.04646" />
  <!-- S -->
  <path
     class="logo__letter-pts"
     d="m 1541.61,339.39279 a 987,1114.628 0 0 0 -101.55,-33.26945 c -55.79,-14.16152 -82.75,-36.13789 -82.75,-66.55016 1.88,-36.80418 24.45,-55.92339 69.58,-56.62357 37,0 62.69,13.45008 77.11,41.05039 8.15,18.40774 20.68,28.32307 38.86,28.32307 h 48.89 c -5,-99.81962 -57,-149.37369 -157.33,-149.37369 -105.31,-0.71147 -158.6,48.84259 -160.47,150.07385 0,63.71562 41.36,107.60057 124.74,131.67744 30.71,9.20387 59.54,17.69626 84.62,26.18867 26.33,8.49241 38.86,24.06556 38.86,47.43097 0.63,39.63875 -26.33,59.46942 -82.11,59.46942 -55.78,0 -84.63,-25.48852 -87.76,-76.46552 h -84.62 c 2.5,104.77729 59.54,157.86611 172.38,157.86611 107.81,0 164.23,-46.71952 169.24,-140.87001 q 3.76,-91.31592 -67.69,-118.92752 z"
     id="path41"
     style="stroke-width:1.06269" />
  <!-- A -->
  <path
     class="logo__letter-a"
     d="M 1039.32,799.08 1600,800 v -96 l -439.25,-2.09 2.59,-684.47 h -91.9 c -27.9,0 -50.4267,15.61 -67.58,46.83 L 641.27,701.91 H 3.74 v 97.17 l 703.24,1.45 43.68,-76 78.13,-144.13 h 215.8 l -3.82,121.53 M 893.46,460.72 1056,160 l -9.12,300.72 z"
     id="path43"
     sodipodi:nodetypes="cccccsccccccccccccc" />
</svg>
